# xmcd
#
# Track frame offsets:
#	150
#	14115
#	28222
#	42240
#
# Disc length: 785 seconds
#
# Revision: 1
# Processed by: cddbd v1.4PL0 Copyright (c) Steve Scherf et al.
# Submitted via: audiograbber 1.81.03
#
DISCID=31030f04
DTITLE=Latwerch-Band - Närrische Zeiten
DYEAR=1995
DGENRE=Pop
TTITLE0=Ess mol Saumaa
TTITLE1=Närrische Zeide
TTITLE2=Moi Hund hat Koppweh
TTITLE3=Die Schlabbe vumm Babbe
EXTD=
EXTT0=
EXTT1=
EXTT2=
EXTT3=
PLAYORDER=
